<?xml version="1.0" encoding="UTF-8"?><svg id="uuid-58469542-dec4-425d-a28c-4ea6aa9d073e" xmlns="http://www.w3.org/2000/svg" viewBox="0 0 1000 250"><path d="m282.019,140.867c-1.825-1.915-4.263-3.602-7.318-5.061-3.056-1.458-6.77-2.78-11.149-3.967-3.374-.911-6.041-1.731-8.001-2.462-1.96-.729-3.443-1.368-4.444-1.915-.913-.637-1.621-1.413-2.12-2.325-.504-.911-.753-1.868-.753-2.873s.207-1.915.616-2.735c.411-.821,1.024-1.526,1.846-2.12.822-.592,1.846-1.026,3.078-1.299,1.231-.274,2.621-.41,4.172-.41,1.732,0,3.692.365,5.881,1.094,2.19.731,4.31,1.734,6.36,3.009,1.383.861,2.672,1.783,3.867,2.767.969.797,2.391.681,3.233-.249l7.261-8.027c.893-.986.806-2.519-.201-3.387-1.857-1.6-3.933-3.034-6.226-4.302-3.056-1.687-6.36-2.986-9.916-3.899-3.558-.911-7.206-1.368-10.943-1.368s-7.296.526-10.669,1.573c-3.376,1.049-6.36,2.53-8.96,4.446-2.598,1.915-4.628,4.219-6.087,6.907-1.46,2.691-2.189,5.677-2.189,8.959,0,2.736.432,5.222,1.3,7.455.866,2.236,2.12,4.309,3.762,6.224,1.915,2.007,4.49,3.808,7.727,5.403,3.236,1.597,7.181,2.988,11.832,4.172,3.009.821,5.472,1.573,7.386,2.257,1.915.684,3.327,1.299,4.24,1.847,1.641,1.094,2.461,2.646,2.461,4.651,0,1.004-.204,1.938-.615,2.804-.41.868-1.026,1.597-1.846,2.189-.82.594-1.802,1.049-2.941,1.368-1.141.321-2.394.479-3.762.479-3.467,0-6.93-.66-10.395-1.984-2.856-1.088-5.464-2.751-7.823-4.986-.875-.829-2.234-.866-3.151-.083l-8.661,7.395c-1.033.882-1.127,2.463-.183,3.439,2.949,3.044,6.613,5.5,10.994,7.366,5.243,2.233,11.239,3.351,17.987,3.351,5.472,0,10.395-1.004,14.773-3.009,4.379-2.005,7.819-4.74,10.327-8.207,2.508-3.465,3.762-7.431,3.762-11.9,0-2.552-.365-4.877-1.094-6.976-.73-2.096-1.87-3.967-3.42-5.608Z" style="fill:#fff;"/><path d="m351.841,159.195h-32.803l32.852-43.433c.166-.219.255-.486.255-.761v-10.898c0-.697-.564-1.262-1.262-1.262h-55.199c-.697,0-1.261.565-1.261,1.262v13.479c0,.697.564,1.262,1.261,1.262h32.684l-33.683,43.704c-.171.221-.262.492-.262.77v10.619c0,.697.564,1.262,1.261,1.262h56.156c.697,0,1.262-.565,1.262-1.262v-13.48c0-.697-.565-1.262-1.262-1.262Z" style="fill:#fff;"/><path d="m432.137,102.841h-14.554c-1.306,0-2.367,1.06-2.367,2.367v7.148c-1.387-1.898-2.996-3.618-4.855-5.138-2.237-1.823-4.835-3.26-7.797-4.309-2.965-1.047-6.223-1.573-9.78-1.573-6.291,0-11.899,1.597-16.824,4.787-4.924,3.193-8.822,7.615-11.695,13.268-2.872,5.655-4.307,12.129-4.307,19.423s1.411,13.77,4.24,19.423c2.825,5.655,6.655,10.122,11.488,13.405,4.834,3.283,10.26,4.924,16.278,4.924,3.373,0,6.566-.526,9.575-1.573s5.721-2.462,8.138-4.24c2.036-1.499,3.781-3.186,5.266-5.041v7.119c0,1.307,1.061,2.367,2.367,2.367h14.828c1.306,0,2.366-1.06,2.366-2.367v-67.625c0-1.307-1.059-2.367-2.366-2.367Zm-18.904,46.985c-1.505,3.146-3.624,5.587-6.36,7.318-2.736,1.733-5.929,2.598-9.575,2.598-3.556,0-6.681-.866-9.369-2.598-2.691-1.731-4.811-4.172-6.36-7.318-1.552-3.146-2.324-6.815-2.324-11.011,0-4.104.772-7.705,2.324-10.806,1.549-3.099,3.67-5.54,6.36-7.318,2.688-1.778,5.814-2.667,9.369-2.667,3.645,0,6.838.889,9.575,2.667,2.736,1.778,4.855,4.219,6.36,7.318,1.504,3.101,2.257,6.702,2.257,10.806,0,4.196-.753,7.865-2.257,11.011Z" style="fill:#fff;"/><path d="m547.964,104.824c-3.739-2.233-8.435-3.351-14.089-3.351-2.371,0-4.787.365-7.248,1.094-2.464.731-4.836,1.733-7.114,3.009-2.28,1.278-4.333,2.828-6.155,4.651-1.465,1.465-2.714,3.051-3.765,4.749-1.002-2.423-2.205-4.49-3.621-6.186-2.099-2.507-4.651-4.353-7.66-5.54-3.009-1.184-6.383-1.778-10.121-1.778-2.463,0-4.925.389-7.386,1.163-2.463.776-4.788,1.846-6.977,3.214-2.187,1.368-4.126,3.009-5.813,4.924-.457.518-.884,1.056-1.289,1.607l-.216-7.244c-.038-1.279-1.086-2.296-2.366-2.296h-14.076c-1.306,0-2.366,1.06-2.366,2.367v67.625c0,1.307,1.059,2.367,2.366,2.367h14.828c1.306,0,2.367-1.06,2.367-2.367v-40.994c0-1.915.363-3.693,1.094-5.334.728-1.642,1.731-3.078,3.009-4.309,1.276-1.231,2.804-2.189,4.581-2.872,1.779-.684,3.715-1.026,5.814-1.026,2.551,0,4.694.547,6.429,1.642,1.731,1.094,3.053,2.715,3.966,4.856.91,2.144,1.367,4.719,1.367,7.728v40.309c0,1.307,1.061,2.367,2.367,2.367h14.828c1.306,0,2.366-1.06,2.366-2.367v-40.857c0-1.915.363-3.715,1.094-5.403.729-1.686,1.755-3.146,3.078-4.377,1.321-1.231,2.873-2.189,4.65-2.872,1.779-.684,3.717-1.026,5.815-1.026,2.735,0,4.968.526,6.702,1.573,1.731,1.049,3.053,2.622,3.966,4.719.91,2.099,1.367,4.787,1.367,8.07v40.173c0,1.307,1.061,2.367,2.367,2.367h14.691c1.308,0,2.367-1.06,2.367-2.367v-41.541c0-6.474-.936-11.945-2.805-16.414-1.87-4.467-4.674-7.818-8.412-10.054Z" style="fill:#fff;"/><path d="m574.337,73.979h14.69c1.306,0,2.366,1.06,2.366,2.366v96.487c0,1.306-1.06,2.367-2.367,2.367h-14.688c-1.306,0-2.367-1.061-2.367-2.367v-96.486c0-1.306,1.06-2.367,2.367-2.367Z" style="fill:#fff;"/><path d="m746.814,159.195h-31.698l32.628-43.137c.312-.411.479-.912.479-1.428v-9.423c0-1.307-1.059-2.367-2.367-2.367h-52.989c-1.308,0-2.367,1.06-2.367,2.367v11.27c0,1.307,1.059,2.367,2.367,2.367h31.579l-33.454,43.406c-.32.414-.493.922-.493,1.445v9.138c0,1.307,1.059,2.367,2.367,2.367h53.946c1.308,0,2.367-1.06,2.367-2.367v-11.27c0-1.307-1.059-2.367-2.367-2.367Z" style="fill:#fff;"/><path d="m814.248,102.841h-52.989c-1.308,0-2.367,1.06-2.367,2.367v11.27c0,1.307,1.059,2.367,2.367,2.367h31.578l-33.454,43.406c-.318.414-.491.922-.491,1.445v9.138c0,1.307,1.059,2.367,2.367,2.367h46.588c1.309,0,2.369-1.062,2.367-2.371l-.019-11.27c-.003-1.306-1.061-2.363-2.367-2.363h-24.321l32.628-43.137c.31-.411.479-.912.479-1.428v-9.423c0-1.307-1.059-2.367-2.367-2.367Z" style="fill:#fff;"/><path d="m829.078,153.588c-3.283,0-5.951,1.073-8.003,3.214-2.052,2.144-3.078,4.903-3.078,8.276,0,3.74.957,6.613,2.872,8.617,1.915,2.005,4.651,3.009,8.208,3.009,3.282,0,5.925-1.073,7.933-3.214,2.005-2.141,3.009-4.946,3.009-8.412,0-3.647-.957-6.474-2.872-8.481-1.915-2.005-4.606-3.009-8.07-3.009Z" style="fill:#fff;"/><path d="m903.224,104.619c-3.694-2.188-8.277-3.283-13.748-3.283-4.013,0-7.843.82-11.49,2.462-3.648,1.641-6.77,3.808-9.369,6.497-.564.585-1.084,1.185-1.572,1.798v-35.747c0-1.307-1.061-2.367-2.367-2.367h-14.415c-1.308,0-2.367,1.06-2.367,2.367v96.486c0,1.307,1.059,2.367,2.367,2.367h14.689c1.306,0,2.367-1.06,2.367-2.367v-41.13c0-1.915.387-3.693,1.161-5.334.775-1.642,1.825-3.099,3.146-4.377,1.321-1.276,2.918-2.257,4.788-2.941,1.868-.684,3.898-1.026,6.087-1.026,2.735-.09,5.038.365,6.907,1.368,1.869,1.005,3.26,2.599,4.172,4.787.912,2.189,1.368,4.924,1.368,8.207v40.446c0,1.307,1.061,2.367,2.367,2.367h14.689c1.308,0,2.367-1.06,2.367-2.367v-41.951c0-6.474-.936-11.922-2.804-16.345-1.87-4.422-4.651-7.728-8.344-9.917Z" style="fill:#fff;"/><path d="m992.006,102.841h-16.791c-.728,0-1.317.589-1.317,1.316v42.044c0,2.007-.365,3.877-1.094,5.608-.73,1.733-1.756,3.238-3.078,4.514-1.321,1.278-2.871,2.257-4.65,2.941-1.779.684-3.717,1.026-5.813,1.026-2.92,0-5.382-.637-7.388-1.915-2.006-1.276-3.556-3.122-4.65-5.54-1.094-2.415-1.641-5.266-1.641-8.549v-40.129c0-.727-.589-1.316-1.316-1.316h-16.792c-.726,0-1.316.589-1.316,1.316v43.275c0,6.11,1.026,11.332,3.078,15.662,2.052,4.333,4.969,7.66,8.753,9.985,3.784,2.325,8.321,3.488,13.61,3.488,4.105,0,7.934-.775,11.491-2.325,3.556-1.55,6.61-3.693,9.164-6.429.785-.841,1.493-1.717,2.14-2.618l.401,8.749c.032.703.611,1.256,1.315,1.256h15.892c.728,0,1.317-.589,1.317-1.316v-69.726c0-.727-.589-1.316-1.317-1.316Z" style="fill:#fff;"/><path d="m627.629,93.9l33.606-4.396c.571-.091.992-.581.998-1.158l.121-13.855c.007-.823-.807-1.402-1.583-1.124l-33.728,9.901c-.446.16-.753.571-.781,1.045v8.35c-.044.755.622,1.357,1.368,1.238Z" style="fill:#fff;"/><path d="m384.605,93.9l33.607-4.396c.571-.091.991-.581.996-1.158l.122-13.855c.007-.823-.808-1.402-1.583-1.124l-33.728,9.901c-.447.16-.755.571-.783,1.045v8.35c-.044.755.622,1.357,1.368,1.238Z" style="fill:#fff;"/><path d="m675.297,102.978h-14.554c-1.306,0-2.367,1.06-2.367,2.367v7.148c-1.387-1.898-2.996-3.618-4.855-5.138-2.237-1.823-4.835-3.26-7.797-4.309-2.965-1.047-6.223-1.573-9.78-1.573-6.291,0-11.899,1.597-16.824,4.787-4.924,3.193-8.822,7.615-11.695,13.268-2.872,5.655-4.307,12.129-4.307,19.423s1.411,13.77,4.24,19.423c2.825,5.655,6.655,10.122,11.488,13.405,4.834,3.283,10.26,4.924,16.278,4.924,3.373,0,6.566-.526,9.575-1.573s5.721-2.462,8.138-4.24c2.036-1.499,3.781-3.186,5.266-5.041v7.119c0,1.307,1.061,2.367,2.367,2.367h14.828c1.306,0,2.366-1.06,2.366-2.367v-67.625c0-1.307-1.059-2.367-2.366-2.367Zm-18.904,46.985c-1.505,3.146-3.624,5.587-6.36,7.318-2.736,1.733-5.929,2.598-9.575,2.598-3.556,0-6.681-.866-9.369-2.598-2.691-1.731-4.811-4.172-6.36-7.318-1.552-3.146-2.324-6.815-2.324-11.011,0-4.104.772-7.705,2.324-10.806,1.549-3.099,3.67-5.54,6.36-7.318,2.688-1.778,5.814-2.667,9.369-2.667,3.645,0,6.838.889,9.575,2.667,2.736,1.778,4.855,4.219,6.36,7.318,1.504,3.101,2.257,6.702,2.257,10.806,0,4.196-.753,7.865-2.257,11.011Z" style="fill:#fff;"/><path d="m143.198,68.479v118.388c0,2.98-2.415,5.395-5.395,5.395H38.211l-.586,6.697c-.257,2.94,1.896,5.541,4.832,5.838l107.338,10.842c2.987.302,5.645-1.893,5.915-4.882l12.17-134.687c.269-2.973-1.929-5.6-4.903-5.86l-19.78-1.73Z" style="fill:#fff;"/><path d="m6.677,39.729v135.535c0,2.98,2.415,5.395,5.395,5.395h114.128c2.98,0,5.395-2.415,5.395-5.395V39.729c0-2.98-2.415-5.395-5.395-5.395H12.072c-2.98,0-5.395,2.415-5.395,5.395Zm75.561,52.61c0,2.389-1.937,4.326-4.326,4.326H29.361c-2.389,0-4.326-1.937-4.326-4.326v-3.093c0-2.389,1.937-4.326,4.326-4.326h48.55c2.389,0,4.326,1.937,4.326,4.326v3.093Zm31.141-27.976c0,2.389-1.937,4.326-4.326,4.326H28.891c-2.389,0-4.326-1.937-4.326-4.326v-3.093c0-2.389,1.937-4.326,4.326-4.326h80.162c2.389,0,4.326,1.937,4.326,4.326v3.093Z" style="fill:#fff;"/></svg>